<?xml version="1.0" encoding="UTF-8"?>
<!DOCTYPE svg PUBLIC "-//W3C//DTD SVG 1.1//EN"
    "http://www.w3.org/Graphics/SVG/1.1/DTD/svg11.dtd">
<svg xmlns="http://www.w3.org/2000/svg" xmlns:xlink="http://www.w3.org/1999/xlink" version="1.1" width="300.0" height="199.99999999999994" font-size="1" viewBox="0 0 300 200" stroke="rgb(0,0,0)" stroke-opacity="1"><g><g fill="rgb(0,0,0)" fill-opacity="0.0"><g stroke="rgb(0,0,0)" stroke-opacity="1.0" stroke-width="0.9797958971132715" stroke-linecap="butt" stroke-linejoin="miter" font-size="1.0em" stroke-miterlimit="10.0"><g><g><g fill="rgb(255,255,255)" fill-opacity="1.0"><g fill="rgb(255,255,255)" fill-opacity="1.0"><g fill="rgb(255,255,255)" fill-opacity="1.0"><path d="M 100.00000000000001,199.99999999999994 l -5.551115123125781e-15,-49.999999999999986 h -49.999999999999986 l -5.551115123125781e-15,49.999999999999986 Z" /></g></g></g><g fill="rgb(255,255,255)" fill-opacity="1.0"><g fill="rgb(255,255,255)" fill-opacity="1.0"><g fill="rgb(255,255,255)" fill-opacity="1.0"><path d="M 50.000000000000014,199.99999999999994 l -5.551115123125781e-15,-49.999999999999986 h -49.999999999999986 l -5.551115123125781e-15,49.999999999999986 Z" /></g></g></g></g><g><g fill="rgb(255,255,255)" fill-opacity="1.0"><g fill="rgb(255,255,255)" fill-opacity="1.0"><g fill="rgb(255,255,255)" fill-opacity="1.0"><path d="M 200.0,149.99999999999994 l -5.551115123125781e-15,-49.999999999999986 h -49.999999999999986 l -5.551115123125781e-15,49.999999999999986 Z" /></g></g></g><g fill="rgb(255,255,255)" fill-opacity="1.0"><g fill="rgb(255,255,255)" fill-opacity="1.0"><g fill="rgb(255,255,255)" fill-opacity="1.0"><path d="M 150.0,149.99999999999994 l -5.551115123125781e-15,-49.999999999999986 h -49.999999999999986 l -5.551115123125781e-15,49.999999999999986 Z" /></g></g></g></g><g fill="rgb(255,255,255)" fill-opacity="1.0"><g fill="rgb(255,255,255)" fill-opacity="1.0"><g fill="rgb(255,255,255)" fill-opacity="1.0"><path d="M 100.00000000000001,149.99999999999994 l -5.551115123125781e-15,-49.999999999999986 h -49.999999999999986 l -5.551115123125781e-15,49.999999999999986 Z" /></g></g></g><g fill="rgb(255,255,255)" fill-opacity="1.0"><g fill="rgb(255,255,255)" fill-opacity="1.0"><g fill="rgb(255,255,255)" fill-opacity="1.0"><path d="M 50.000000000000014,149.99999999999994 l -5.551115123125781e-15,-49.999999999999986 h -49.999999999999986 l -5.551115123125781e-15,49.999999999999986 Z" /></g></g></g></g><g><g><g fill="rgb(255,255,255)" fill-opacity="1.0"><g fill="rgb(255,255,255)" fill-opacity="1.0"><g fill="rgb(255,255,255)" fill-opacity="1.0"><path d="M 200.0,99.99999999999997 l -5.551115123125781e-15,-49.999999999999986 h -49.999999999999986 l -5.551115123125781e-15,49.999999999999986 Z" /></g></g></g><g fill="rgb(255,255,255)" fill-opacity="1.0"><g fill="rgb(255,255,255)" fill-opacity="1.0"><g fill="rgb(255,255,255)" fill-opacity="1.0"><path d="M 150.0,99.99999999999997 l -5.551115123125781e-15,-49.999999999999986 h -49.999999999999986 l -5.551115123125781e-15,49.999999999999986 Z" /></g></g></g></g><g fill="rgb(255,255,255)" fill-opacity="1.0"><g fill="rgb(255,255,255)" fill-opacity="1.0"><g fill="rgb(255,255,255)" fill-opacity="1.0"><path d="M 100.00000000000001,99.99999999999997 l -5.551115123125781e-15,-49.999999999999986 h -49.999999999999986 l -5.551115123125781e-15,49.999999999999986 Z" /></g></g></g><g fill="rgb(255,255,255)" fill-opacity="1.0"><g fill="rgb(255,255,255)" fill-opacity="1.0"><g fill="rgb(255,255,255)" fill-opacity="1.0"><path d="M 50.000000000000014,99.99999999999997 l -5.551115123125781e-15,-49.999999999999986 h -49.999999999999986 l -5.551115123125781e-15,49.999999999999986 Z" /></g></g></g></g><g><g fill="rgb(255,255,255)" fill-opacity="1.0"><g fill="rgb(255,255,255)" fill-opacity="1.0"><g fill="rgb(255,255,255)" fill-opacity="1.0"><path d="M 300.0,49.99999999999998 l -5.551115123125781e-15,-49.999999999999986 h -49.999999999999986 l -5.551115123125781e-15,49.999999999999986 Z" /></g></g></g><g fill="rgb(255,255,255)" fill-opacity="1.0"><g fill="rgb(255,255,255)" fill-opacity="1.0"><g fill="rgb(255,255,255)" fill-opacity="1.0"><path d="M 250.0,49.99999999999998 l -5.551115123125781e-15,-49.999999999999986 h -49.999999999999986 l -5.551115123125781e-15,49.999999999999986 Z" /></g></g></g></g><g><g fill="rgb(255,255,255)" fill-opacity="1.0"><g fill="rgb(255,255,255)" fill-opacity="1.0"><g fill="rgb(255,255,255)" fill-opacity="1.0"><path d="M 200.0,49.99999999999998 l -5.551115123125781e-15,-49.999999999999986 h -49.999999999999986 l -5.551115123125781e-15,49.999999999999986 Z" /></g></g></g><g fill="rgb(255,255,255)" fill-opacity="1.0"><g fill="rgb(255,255,255)" fill-opacity="1.0"><g fill="rgb(255,255,255)" fill-opacity="1.0"><path d="M 150.0,49.99999999999998 l -5.551115123125781e-15,-49.999999999999986 h -49.999999999999986 l -5.551115123125781e-15,49.999999999999986 Z" /></g></g></g></g><g fill="rgb(255,255,255)" fill-opacity="1.0"><g fill="rgb(255,255,255)" fill-opacity="1.0"><g fill="rgb(255,255,255)" fill-opacity="1.0"><path d="M 100.00000000000001,49.99999999999998 l -5.551115123125781e-15,-49.999999999999986 h -49.999999999999986 l -5.551115123125781e-15,49.999999999999986 Z" /></g></g></g><g fill="rgb(255,255,255)" fill-opacity="1.0"><g fill="rgb(255,255,255)" fill-opacity="1.0"><g fill="rgb(255,255,255)" fill-opacity="1.0"><path d="M 50.000000000000014,49.99999999999998 l -5.551115123125781e-15,-49.999999999999986 h -49.999999999999986 l -5.551115123125781e-15,49.999999999999986 Z" /></g></g></g><g fill="rgb(0,128,0)" fill-opacity="1.0"><g fill="rgb(0,128,0)" fill-opacity="1.0"><g fill="rgb(0,128,0)" fill-opacity="1.0"><path d="M 50.000000000000014,149.99999999999994 l -5.551115123125781e-15,-49.999999999999986 h -49.999999999999986 l -5.551115123125781e-15,49.999999999999986 Z" /></g></g></g><g><g fill="rgb(0,128,0)" fill-opacity="1.0"><g fill="rgb(0,128,0)" fill-opacity="1.0"><g fill="rgb(0,128,0)" fill-opacity="1.0"><path d="M 150.0,99.99999999999997 l -5.551115123125781e-15,-49.999999999999986 h -49.999999999999986 l -5.551115123125781e-15,49.999999999999986 Z" /></g></g></g><g fill="rgb(0,128,0)" fill-opacity="1.0"><g fill="rgb(0,128,0)" fill-opacity="1.0"><g fill="rgb(0,128,0)" fill-opacity="1.0"><path d="M 100.00000000000001,99.99999999999997 l -5.551115123125781e-15,-49.999999999999986 h -49.999999999999986 l -5.551115123125781e-15,49.999999999999986 Z" /></g></g></g><g fill="rgb(0,128,0)" fill-opacity="1.0"><g fill="rgb(0,128,0)" fill-opacity="1.0"><g fill="rgb(0,128,0)" fill-opacity="1.0"><path d="M 50.000000000000014,99.99999999999997 l -5.551115123125781e-15,-49.999999999999986 h -49.999999999999986 l -5.551115123125781e-15,49.999999999999986 Z" /></g></g></g></g><g fill="rgb(0,128,0)" fill-opacity="1.0"><g fill="rgb(0,128,0)" fill-opacity="1.0"><g fill="rgb(0,128,0)" fill-opacity="1.0"><path d="M 150.0,49.99999999999998 l -5.551115123125781e-15,-49.999999999999986 h -49.999999999999986 l -5.551115123125781e-15,49.999999999999986 Z" /></g></g></g><g fill="rgb(0,128,0)" fill-opacity="1.0"><g fill="rgb(0,128,0)" fill-opacity="1.0"><g fill="rgb(0,128,0)" fill-opacity="1.0"><path d="M 100.00000000000001,49.99999999999998 l -5.551115123125781e-15,-49.999999999999986 h -49.999999999999986 l -5.551115123125781e-15,49.999999999999986 Z" /></g></g></g><g fill="rgb(0,128,0)" fill-opacity="1.0"><g fill="rgb(0,128,0)" fill-opacity="1.0"><g fill="rgb(0,128,0)" fill-opacity="1.0"><path d="M 50.000000000000014,49.99999999999998 l -5.551115123125781e-15,-49.999999999999986 h -49.999999999999986 l -5.551115123125781e-15,49.999999999999986 Z" /></g></g></g></g></g></g></svg>